<svg xmlns="http://www.w3.org/2000/svg" version="1.1" xmlns:xlink="http://www.w3.org/1999/xlink" xmlns:svgjs="http://svgjs.dev/svgjs" width="1000" height="1000" viewBox="0 0 1000 1000"><rect width="1000" height="1000" fill="#010536"></rect><g transform="matrix(0.7,0,0,0.7,149.57575757575756,358.79958640750067)"><svg viewBox="0 0 396 160" data-background-color="#010536" preserveAspectRatio="xMidYMid meet" height="404" width="1000" xmlns="http://www.w3.org/2000/svg" xmlns:xlink="http://www.w3.org/1999/xlink"><g id="tight-bounds" transform="matrix(1,0,0,1,0.2400000000000091,-0.1129201739749135)"><svg viewBox="0 0 395.52 160.22584034794983" height="160.22584034794983" width="395.52"><g><svg viewBox="0 0 549.5243135559163 222.6132557926956" height="160.22584034794983" width="395.52"><g transform="matrix(1,0,0,1,0,30.7663761623769)"><svg viewBox="0 0 395.52 161.0805034679418" height="161.0805034679418" width="395.52"><g><svg viewBox="0 0 395.52 161.0805034679418" height="161.0805034679418" width="395.52"><g><svg viewBox="0 0 395.52 102.0190476190476" height="102.0190476190476" width="395.52"><g transform="matrix(1,0,0,1,0,0)"><svg width="395.52" viewBox="1.75 -39 201.58999633789062 52" height="102.0190476190476" data-palette-color="#fbfbf8"><path d="M14.35-14.65L14.35-8.05Q14.35-6.15 14.53-5 14.7-3.85 15.2-3.2 15.7-2.55 16.63-2.3 17.55-2.05 19.1-2L19.1-2 19.1 0 1.75 0 1.75-2Q3.4-2.05 4.45-2.3 5.5-2.55 6.05-3.15 6.6-3.75 6.8-4.85 7-5.95 7-7.7L7-7.7 7-30.8Q7-32.5 6.83-33.6 6.65-34.7 6.15-35.3 5.65-35.9 4.73-36.15 3.8-36.4 2.3-36.5L2.3-36.5 2.3-38.5 19.55-38.5 19.55-36.5Q17.85-36.45 16.82-36.2 15.8-35.95 15.25-35.3 14.7-34.65 14.53-33.5 14.35-32.35 14.35-30.45L14.35-30.45 14.35-19.35 27.3-33.25Q28.45-34.5 28.45-35.35L28.45-35.35Q28.45-35.9 27.73-36.2 27-36.5 25.05-36.5L25.05-36.5 25.05-38.5 38.7-38.5 38.7-36.55Q37.6-36.5 36.77-36.35 35.95-36.2 35.13-35.7 34.3-35.2 33.27-34.27 32.25-33.35 30.75-31.8L30.75-31.8 21.85-22.5 36.55-4.6Q37.6-3.3 38.88-2.7 40.15-2.1 42.15-2L42.15-2 42.15 0 23.65 0 23.65-2Q25.7-2.05 26.6-2.35 27.5-2.65 27.5-3.35L27.5-3.35Q27.5-3.6 27.43-3.83 27.35-4.05 27.18-4.38 27-4.7 26.65-5.18 26.3-5.65 25.7-6.35L25.7-6.35 16.85-17.25 14.35-14.65ZM47.6 1.15L47.6-30.8Q47.6-32.55 47.42-33.63 47.25-34.7 46.75-35.33 46.25-35.95 45.32-36.18 44.4-36.4 42.85-36.5L42.85-36.5 42.85-38.5 59.7-38.5 59.7-36.5Q58.15-36.45 57.2-36.2 56.25-35.95 55.75-35.3 55.25-34.65 55.1-33.5 54.95-32.35 54.95-30.45L54.95-30.45 54.95 0.1Q54.95 6.4 51.75 9.7 48.55 13 42.2 13L42.2 13Q37.65 13 35.17 11.45 32.7 9.9 32.7 7.5L32.7 7.5Q32.7 6.05 33.62 5.28 34.55 4.5 35.9 4.5L35.9 4.5Q37.05 4.5 37.72 5.1 38.4 5.7 39.4 7.35L39.4 7.35Q40.4 9 41.2 9.55 42 10.1 43.15 10.1L43.15 10.1Q45.3 10.1 46.45 7.75 47.6 5.4 47.6 1.15L47.6 1.15ZM61.85-10.4L61.85-13.4 80.1-39 84.85-39 84.85-13.55Q86.65-13.6 87.8-13.83 88.95-14.05 89.6-14.58 90.25-15.1 90.5-16 90.75-16.9 90.75-18.35L90.75-18.35 92.6-18.35 92.6-6.2 90.75-6.2Q90.75-7.55 90.5-8.4 90.25-9.25 89.6-9.73 88.95-10.2 87.8-10.38 86.65-10.55 84.85-10.6L84.85-10.6 84.85-9.05Q84.85-7.3 85.02-6 85.2-4.7 85.7-3.83 86.2-2.95 87.12-2.5 88.05-2.05 89.5-2L89.5-2 89.5 0 72.35 0 72.35-2Q74.1-2.05 75.17-2.53 76.25-3 76.82-3.85 77.4-4.7 77.6-5.9 77.8-7.1 77.8-8.7L77.8-8.7 77.8-10.4 61.85-10.4ZM77.8-13.55L77.8-29.75 77.6-29.75 66.1-13.55 77.8-13.55ZM117.24 0L96.39 0 96.39-2Q98.04-2.05 99.07-2.27 100.09-2.5 100.67-3.13 101.24-3.75 101.44-4.83 101.64-5.9 101.64-7.7L101.64-7.7 101.64-30.8Q101.64-32.55 101.49-33.63 101.34-34.7 100.84-35.33 100.34-35.95 99.47-36.18 98.59-36.4 97.19-36.5L97.19-36.5 97.19-38.5 116.19-38.5Q120.99-38.5 125.04-37 129.09-35.5 132.04-32.85 134.99-30.2 136.64-26.55 138.29-22.9 138.29-18.6L138.29-18.6Q138.29-14.5 136.74-11.08 135.19-7.65 132.42-5.2 129.64-2.75 125.77-1.38 121.89 0 117.24 0L117.24 0ZM116.09-35.45L109.84-35.45Q108.99-35.45 108.99-34.6L108.99-34.6 108.99-8.75Q108.99-5.85 110.79-4.45 112.59-3.05 116.34-3.05L116.34-3.05Q122.89-3.05 126.42-7 129.94-10.95 129.94-18.5L129.94-18.5Q129.94-22.5 128.99-25.65 128.04-28.8 126.24-30.98 124.44-33.15 121.87-34.3 119.29-35.45 116.09-35.45L116.09-35.45ZM159.64-2L159.64 0 141.79 0 141.79-2Q143.49-2.05 144.52-2.33 145.54-2.6 146.09-3.35 146.64-4.1 146.84-5.48 147.04-6.85 147.04-9.2L147.04-9.2 147.04-29.3Q147.04-31.4 146.87-32.77 146.69-34.15 146.19-34.95 145.69-35.75 144.77-36.08 143.84-36.4 142.29-36.5L142.29-36.5 142.29-38.5 159.14-38.5 159.14-36.5Q157.59-36.4 156.67-36.08 155.74-35.75 155.24-34.95 154.74-34.15 154.57-32.77 154.39-31.4 154.39-29.3L154.39-29.3 154.39-9.2Q154.39-6.85 154.57-5.48 154.74-4.1 155.32-3.35 155.89-2.6 156.92-2.33 157.94-2.05 159.64-2L159.64-2ZM187.64-8.65L186.49-11.65 172.34-11.65Q169.99-6.35 169.99-4.3L169.99-4.3Q169.99-2.8 171.11-2.4 172.24-2 174.49-2L174.49-2 174.49 0 160.79 0 160.79-2Q161.99-2.15 162.86-2.4 163.74-2.65 164.41-3.1 165.09-3.55 165.59-4.28 166.09-5 166.54-6.05L166.54-6.05 179.69-39 183.39-39 195.34-9.8Q196.39-7.25 197.11-5.8 197.84-4.35 198.66-3.58 199.49-2.8 200.56-2.5 201.64-2.2 203.34-2.05L203.34-2.05 203.34 0 184.44 0 184.44-2.05Q186.84-2.15 187.89-2.55 188.94-2.95 188.94-4.15L188.94-4.15Q188.94-4.85 188.59-5.95 188.24-7.05 187.64-8.65L187.64-8.65ZM179.44-29.8L173.49-14.65 185.39-14.65 179.64-29.8 179.44-29.8Z" opacity="1" transform="matrix(1,0,0,1,0,0)" fill="#fbfbf8" class="undefined-text-0" data-fill-palette-color="primary" id="text-0"></path></svg></g></svg></g><g transform="matrix(1,0,0,1,163.310208,126.10329630476188)"><svg viewBox="0 0 232.209792 34.97720716317991" height="34.97720716317991" width="232.209792"><g transform="matrix(1,0,0,1,0,0)"><svg width="232.209792" viewBox="1.0499999523162842 -37.5 250.9199981689453 37.79999923706055" height="34.97720716317991" data-palette-color="#fbfbf8"><path d="M23.1 0L17.75 0 13.3-25.7 9.25 0 6.25 0 11.75-35Q8.6-34.3 6.9-31.98 5.2-29.65 5.2-25.45L5.2-25.45Q5.2-23.75 5.43-22.68 5.65-21.6 5.95-20.95 6.25-20.3 6.58-20.03 6.9-19.75 7.05-19.65L7.05-19.65Q4.35-19.65 2.7-21.03 1.05-22.4 1.05-25.35L1.05-25.35Q1.05-27.8 2.25-30.03 3.45-32.25 5.3-33.9 7.15-35.55 9.38-36.52 11.6-37.5 13.7-37.5L13.7-37.5Q14.5-37.5 15.28-37.35 16.05-37.2 16.75-36.8L16.75-36.8 21.75-7.75 27.6-36.8 33.3-36.8 36.1 0 30.4 0 28.4-26.2 23.1 0ZM39.95-25L44.95-25 44.95-8Q44.95-7.5 45-6.75 45.05-6 45.27-5.28 45.5-4.55 45.95-4.03 46.4-3.5 47.2-3.5L47.2-3.5Q49.65-3.5 50.8-8.95L50.8-8.95 52.65-8.95Q52.1-5.8 51.25-3.98 50.4-2.15 49.45-1.2 48.5-0.25 47.5 0.03 46.5 0.3 45.7 0.3L45.7 0.3Q43.95 0.3 42.85-0.38 41.75-1.05 41.1-2.1 40.45-3.15 40.2-4.45 39.95-5.75 39.95-6.95L39.95-6.95 39.95-25ZM39.05-32.2L39.05-32.2Q39.05-33.55 40-34.55 40.95-35.55 42.35-35.55L42.35-35.55Q43.7-35.55 44.7-34.55 45.7-33.55 45.7-32.2L45.7-32.2Q45.7-30.8 44.7-29.85 43.7-28.9 42.35-28.9L42.35-28.9Q40.95-28.9 40-29.85 39.05-30.8 39.05-32.2ZM62.1-17.35L62.1-17.35Q62.5-17.7 62.72-18.48 62.95-19.25 62.95-19.95L62.95-19.95Q62.95-21.1 62.22-21.85 61.5-22.6 60.2-22.6L60.2-22.6Q58.85-22.6 57.95-21.6 57.05-20.6 56.5-19.07 55.95-17.55 55.72-15.68 55.5-13.8 55.5-12L55.5-12Q55.5-9.35 55.97-7.7 56.45-6.05 57.25-5.13 58.05-4.2 59.12-3.85 60.2-3.5 61.4-3.5L61.4-3.5Q64.05-3.5 65.87-4.83 67.7-6.15 69-8.95L69-8.95 70.7-8.95Q70.1-7.1 69-5.43 67.9-3.75 66.45-2.48 65-1.2 63.3-0.45 61.6 0.3 59.75 0.3L59.75 0.3Q58 0.3 56.3-0.3 54.6-0.9 53.25-2.27 51.9-3.65 51.05-5.88 50.2-8.1 50.2-11.35L50.2-11.35Q50.2-13.45 50.57-15.88 50.95-18.3 51.97-20.38 53-22.45 54.8-23.85 56.6-25.25 59.45-25.25L59.45-25.25Q62.6-25.25 64.25-23.73 65.9-22.2 65.9-19.25L65.9-19.25Q65.9-18 65.42-17.15 64.95-16.3 63.95-16.3L63.95-16.3Q62.85-16.3 62.1-17.35ZM68.94-34.3L73.94-35 73.94-21.2Q74.69-22.55 75.47-23.38 76.24-24.2 77.04-24.6 77.84-25 78.57-25.13 79.29-25.25 79.94-25.25L79.94-25.25Q82.19-25.25 83.57-24.4 84.94-23.55 85.64-22.23 86.34-20.9 86.57-19.33 86.79-17.75 86.79-16.3L86.79-16.3Q86.79-15.4 86.74-14.33 86.69-13.25 86.64-12.13 86.59-11 86.54-9.88 86.49-8.75 86.49-7.8L86.49-7.8Q86.49-7.4 86.54-6.68 86.59-5.95 86.79-5.25 86.99-4.55 87.44-4.03 87.89-3.5 88.74-3.5L88.74-3.5Q89.89-3.5 90.82-4.8 91.74-6.1 92.34-8.95L92.34-8.95 94.19-8.95Q93.64-5.8 92.79-3.98 91.94-2.15 90.99-1.2 90.04-0.25 89.09 0.03 88.14 0.3 87.34 0.3L87.34 0.3Q85.74 0.3 84.64-0.33 83.54-0.95 82.84-2 82.14-3.05 81.82-4.45 81.49-5.85 81.49-7.35L81.49-7.35Q81.49-7.8 81.52-9.03 81.54-10.25 81.57-11.65 81.59-13.05 81.62-14.3 81.64-15.55 81.64-16.05L81.64-16.05Q81.64-17.65 81.39-18.7 81.14-19.75 80.69-20.35 80.24-20.95 79.67-21.2 79.09-21.45 78.44-21.45L78.44-21.45Q76.89-21.45 75.77-20.2 74.64-18.95 73.94-16L73.94-16 73.94 0 68.94 0 68.94-34.3ZM105.74-25L110.74-25 110.74-8Q110.74-7.5 110.79-6.75 110.84-6 111.07-5.28 111.29-4.55 111.74-4.03 112.19-3.5 112.99-3.5L112.99-3.5Q115.44-3.5 116.59-8.95L116.59-8.95 118.44-8.95Q117.89-5.8 117.04-3.98 116.19-2.15 115.24-1.2 114.29-0.25 113.29 0.03 112.29 0.3 111.49 0.3L111.49 0.3Q110.34 0.3 109.52-0.1 108.69-0.5 108.12-1.15 107.54-1.8 107.19-2.65 106.84-3.5 106.64-4.45L106.64-4.45Q105.89-2.5 104.22-1.1 102.54 0.3 100.14 0.3L100.14 0.3Q98.64 0.3 97.12-0.3 95.59-0.9 94.37-2.27 93.14-3.65 92.37-5.83 91.59-8 91.59-11.15L91.59-11.15Q91.59-13.45 92.12-15.95 92.64-18.45 93.79-20.5 94.94-22.55 96.74-23.9 98.54-25.25 101.09-25.25L101.09-25.25Q101.69-25.25 102.37-25.13 103.04-25 103.67-24.7 104.29-24.4 104.84-23.88 105.39-23.35 105.74-22.6L105.74-22.6 105.74-25ZM101.39-3.5L101.39-3.5Q102.14-3.5 102.92-3.93 103.69-4.35 104.32-5.08 104.94-5.8 105.34-6.8 105.74-7.8 105.74-8.95L105.74-8.95 105.74-20.35Q105.39-21.15 104.67-21.83 103.94-22.5 102.79-22.5L102.79-22.5Q101.19-22.5 100.04-21.43 98.89-20.35 98.19-18.73 97.49-17.1 97.17-15.18 96.84-13.25 96.84-11.5L96.84-11.5Q96.84-7.2 98.02-5.35 99.19-3.5 101.39-3.5ZM116.59-34.3L121.59-35 121.59-8Q121.59-7.5 121.64-6.75 121.69-6 121.91-5.28 122.14-4.55 122.59-4.03 123.04-3.5 123.84-3.5L123.84-3.5Q126.29-3.5 127.44-8.95L127.44-8.95 129.29-8.95Q128.74-5.8 127.89-3.98 127.04-2.15 126.09-1.2 125.14-0.25 124.14 0.03 123.14 0.3 122.34 0.3L122.34 0.3Q120.59 0.3 119.49-0.38 118.39-1.05 117.74-2.1 117.09-3.15 116.84-4.45 116.59-5.75 116.59-6.95L116.59-6.95 116.59-34.3ZM159.73-32.3L159.73-32.3Q158.13-32.3 156.46-32.58 154.78-32.85 153.08-33.2L153.08-33.2 153.08-21.75 160.48-21.75 160.48-18.8 153.08-18.8 153.08 0 147.68 0 147.68-34.1Q147.43-34.15 147.21-34.15 146.98-34.15 146.73-34.15L146.73-34.15Q145.43-34.15 144.28-33.8 143.13-33.45 142.31-32.6 141.48-31.75 141.01-30.33 140.53-28.9 140.53-26.75L140.53-26.75Q140.53-24.05 141.21-22.23 141.88-20.4 142.78-19.65L142.78-19.65Q136.83-19.65 136.83-26.2L136.83-26.2Q136.83-28.6 137.63-30.65 138.43-32.7 140.13-34.23 141.83-35.75 144.46-36.63 147.08-37.5 150.73-37.5L150.73-37.5Q151.98-37.5 153.11-37.4 154.23-37.3 155.28-37.2 156.33-37.1 157.43-37 158.53-36.9 159.78-36.9L159.78-36.9Q161.03-36.9 162.13-37.02 163.23-37.15 164.23-37.5L164.23-37.5Q164.13-35.75 163.76-34.73 163.38-33.7 162.78-33.18 162.18-32.65 161.41-32.48 160.63-32.3 159.73-32.3ZM178.93-18.75L178.93-18.75Q178.93-15.25 176.06-12.9 173.18-10.55 168.08-10L168.08-10Q168.28-8 168.81-6.75 169.33-5.5 170.08-4.78 170.83-4.05 171.81-3.78 172.78-3.5 173.83-3.5L173.83-3.5Q176.23-3.5 178.33-4.75 180.43-6 181.73-8.95L181.73-8.95 183.33-8.95Q182.68-7.1 181.53-5.43 180.38-3.75 178.83-2.48 177.28-1.2 175.48-0.45 173.68 0.3 171.78 0.3L171.78 0.3Q170.03 0.3 168.41-0.3 166.78-0.9 165.53-2.27 164.28-3.65 163.51-5.85 162.73-8.05 162.73-11.25L162.73-11.25Q162.73-13.35 163.21-15.8 163.68-18.25 164.81-20.35 165.93-22.45 167.76-23.85 169.58-25.25 172.28-25.25L172.28-25.25Q173.53-25.25 174.71-24.98 175.88-24.7 176.83-23.98 177.78-23.25 178.36-22 178.93-20.75 178.93-18.75ZM168.03-11.95L168.03-11.95Q171.58-12.5 173.66-14.45 175.73-16.4 175.73-19.25L175.73-19.25Q175.73-21.15 175.08-21.98 174.43-22.8 173.23-22.8L173.23-22.8Q171.93-22.8 170.96-21.8 169.98-20.8 169.33-19.23 168.68-17.65 168.36-15.73 168.03-13.8 168.03-11.95ZM181.68-25L186.68-25 186.68-20.8Q187.28-21.7 187.85-22.5 188.43-23.3 189.13-23.9 189.83-24.5 190.68-24.88 191.53-25.25 192.58-25.25L192.58-25.25Q194.28-25.25 195.08-24.38 195.88-23.5 195.88-22.25L195.88-22.25Q195.88-21.5 195.63-21 195.38-20.5 195.03-20.2 194.68-19.9 194.28-19.78 193.88-19.65 193.58-19.65L193.58-19.65Q193.13-19.65 192.85-19.85 192.58-20.05 192.3-20.28 192.03-20.5 191.68-20.7 191.33-20.9 190.78-20.9L190.78-20.9Q189.63-20.9 188.58-20.1 187.53-19.3 186.68-18.4L186.68-18.4 186.68 0 181.68 0 181.68-25ZM198.48-8.95L198.53-34.3 203.53-35 203.53-23.15Q204.38-24 205.53-24.55 206.68-25.1 208.28-25.1L208.28-25.1Q209.63-25.1 211.08-24.63 212.53-24.15 213.78-22.95 215.03-21.75 215.83-19.65 216.63-17.55 216.63-14.3L216.63-14.3Q216.63-11.45 215.95-8.8 215.28-6.15 213.9-4.13 212.53-2.1 210.48-0.9 208.43 0.3 205.68 0.3L205.68 0.3Q204.13 0.3 202.8-0.18 201.48-0.65 200.53-1.73 199.58-2.8 199.03-4.58 198.48-6.35 198.48-8.95L198.48-8.95ZM212.18-13.15L212.18-13.15Q212.18-15.1 211.83-16.8 211.48-18.5 210.8-19.78 210.13-21.05 209.15-21.78 208.18-22.5 206.93-22.5L206.93-22.5Q205.93-22.5 205.08-22.03 204.23-21.55 203.53-20.8L203.53-20.8 203.53-7.65Q203.53-3.15 206.48-3.15L206.48-3.15Q207.88-3.15 208.95-3.98 210.03-4.8 210.75-6.2 211.48-7.6 211.83-9.4 212.18-11.2 212.18-13.15ZM235.02-18.75L235.02-18.75Q235.02-15.25 232.15-12.9 229.27-10.55 224.17-10L224.17-10Q224.37-8 224.9-6.75 225.42-5.5 226.17-4.78 226.92-4.05 227.9-3.78 228.87-3.5 229.92-3.5L229.92-3.5Q232.32-3.5 234.42-4.75 236.52-6 237.82-8.95L237.82-8.95 239.42-8.95Q238.77-7.1 237.62-5.43 236.47-3.75 234.92-2.48 233.37-1.2 231.57-0.45 229.77 0.3 227.87 0.3L227.87 0.3Q226.12 0.3 224.5-0.3 222.87-0.9 221.62-2.27 220.37-3.65 219.6-5.85 218.82-8.05 218.82-11.25L218.82-11.25Q218.82-13.35 219.3-15.8 219.77-18.25 220.9-20.35 222.02-22.45 223.85-23.85 225.67-25.25 228.37-25.25L228.37-25.25Q229.62-25.25 230.8-24.98 231.97-24.7 232.92-23.98 233.87-23.25 234.45-22 235.02-20.75 235.02-18.75ZM224.12-11.95L224.12-11.95Q227.67-12.5 229.75-14.45 231.82-16.4 231.82-19.25L231.82-19.25Q231.82-21.15 231.17-21.98 230.52-22.8 229.32-22.8L229.32-22.8Q228.02-22.8 227.05-21.8 226.07-20.8 225.42-19.23 224.77-17.65 224.45-15.73 224.12-13.8 224.12-11.95ZM237.77-25L242.77-25 242.77-20.8Q243.37-21.7 243.95-22.5 244.52-23.3 245.22-23.9 245.92-24.5 246.77-24.88 247.62-25.25 248.67-25.25L248.67-25.25Q250.37-25.25 251.17-24.38 251.97-23.5 251.97-22.25L251.97-22.25Q251.97-21.5 251.72-21 251.47-20.5 251.12-20.2 250.77-19.9 250.37-19.78 249.97-19.65 249.67-19.65L249.67-19.65Q249.22-19.65 248.95-19.85 248.67-20.05 248.4-20.28 248.12-20.5 247.77-20.7 247.42-20.9 246.87-20.9L246.87-20.9Q245.72-20.9 244.67-20.1 243.62-19.3 242.77-18.4L242.77-18.4 242.77 0 237.77 0 237.77-25Z" opacity="1" transform="matrix(1,0,0,1,0,0)" fill="#fbfbf8" class="undefined-text-1" data-fill-palette-color="secondary" id="text-1"></path></svg></g></svg></g></svg></g></svg></g><g transform="matrix(1,0,0,1,419.60424868571425,0)"><svg viewBox="0 0 129.92006487020197 222.6132557926956" height="222.6132557926956" width="129.92006487020197"><g><svg xmlns="http://www.w3.org/2000/svg" xmlns:xlink="http://www.w3.org/1999/xlink" version="1.1" x="0" y="0" viewBox="13.324250221252441 0 37.351253509521484 64" enable-background="new 0 0 64 64" xml:space="preserve" height="222.6132557926956" width="129.92006487020197" class="icon-icon-0" data-fill-palette-color="accent" id="icon-0"><g fill="#ffff00" data-fill-palette-color="accent"><g fill="#ffff00" data-fill-palette-color="accent"><circle cx="32" cy="12.413" r="3.2" fill="#ffff00" data-fill-palette-color="accent"></circle><path d="M32 16.639c-2.33 0-4.226-1.896-4.226-4.226S29.67 8.187 32 8.187s4.227 1.896 4.227 4.226S34.33 16.639 32 16.639zM32 10.187c-1.228 0-2.226 0.999-2.226 2.226s0.999 2.226 2.226 2.226 2.227-0.999 2.227-2.226S33.228 10.187 32 10.187z" fill="#ffff00" data-fill-palette-color="accent"></path></g><g fill="#ffff00" data-fill-palette-color="accent"><path d="M32.941 15.583L32 15.913l-0.941-0.33L13.729 63.29l1.354 0.476L15.255 64l0.165-0.117 0.192 0.067 0.1-0.274L32 52.141l16.288 11.535 0.101 0.274 0.191-0.067L48.745 64l0.172-0.234 1.354-0.476L32.941 15.583zM35.582 31.748L32 34.824l-3.582-3.076L32 27.615 35.582 31.748zM33.313 26.099l0.935-1.077 1.349 3.711L33.313 26.099zM28.405 28.732l1.348-3.711 0.934 1.077L28.405 28.732zM30.48 36.13l-6.921 5.942 3.291-9.062L30.48 36.13zM32 37.436l7.839 6.73L32 49.718l-7.839-5.552L32 37.436zM33.52 36.13l3.631-3.118 3.291 9.062L33.52 36.13zM33.473 22.886L32 24.584l-1.472-1.698L32 18.835 33.473 22.886zM16.897 60.413l5.479-15.087 7.912 5.604L16.897 60.413zM33.711 50.93l7.912-5.604 5.479 15.087L33.711 50.93z" fill="#ffff00" data-fill-palette-color="accent"></path><path d="M25.009 19.263l1.414-1.391c-1.394-1.37-2.162-3.192-2.162-5.13s0.768-3.762 2.162-5.133l-1.414-1.39c-1.772 1.741-2.748 4.059-2.748 6.522C22.262 15.206 23.237 17.521 25.009 19.263z" fill="#ffff00" data-fill-palette-color="accent"></path><path d="M21.946 22.271l1.414-1.391c-2.212-2.174-3.43-5.064-3.43-8.14 0-3.076 1.218-5.967 3.43-8.143l-1.414-1.391c-2.59 2.548-4.017 5.934-4.016 9.534C17.931 16.342 19.356 19.727 21.946 22.271z" fill="#ffff00" data-fill-palette-color="accent"></path><path d="M20.097 24.09c-6.365-6.259-6.365-16.441 0-22.7L18.683 0c-7.145 7.024-7.145 18.455 0 25.48L20.097 24.09z" fill="#ffff00" data-fill-palette-color="accent"></path><path d="M38.991 19.263c1.771-1.742 2.747-4.057 2.747-6.521 0-2.464-0.975-4.781-2.747-6.522l-1.414 1.39c1.396 1.371 2.161 3.194 2.161 5.133 0 1.938-0.768 3.76-2.161 5.13L38.991 19.263z" fill="#ffff00" data-fill-palette-color="accent"></path><path d="M40.641 20.881l1.414 1.391c2.59-2.545 4.016-5.93 4.016-9.529 0-3.601-1.426-6.986-4.016-9.534l-1.414 1.39c2.211 2.176 3.43 5.067 3.43 8.143C44.07 15.818 42.852 18.707 40.641 20.881z" fill="#ffff00" data-fill-palette-color="accent"></path><path d="M43.902 24.09l1.414 1.391c7.146-7.025 7.146-18.456 0-25.48l-1.414 1.39C50.27 7.648 50.27 17.831 43.902 24.09z" fill="#ffff00" data-fill-palette-color="accent"></path></g></g></svg></g></svg></g></svg></g><defs></defs></svg><rect width="395.52" height="160.22584034794983" fill="none" stroke="none" visibility="hidden"></rect></g></svg></g></svg>